name Walk5.mot
datacolumns 19
datarows 22
range 2.41200000 2.43300000
endheader

                time	   L_ground_force_vx	   L_ground_force_vy	   L_ground_force_vz	   L_ground_force_px	   L_ground_force_py	   L_ground_force_pz	   R_ground_force_vx	   R_ground_force_vy	   R_ground_force_vz	   R_ground_force_px	   R_ground_force_py	   R_ground_force_pz	   L_ground_torque_x	   L_ground_torque_y	   L_ground_torque_z	   R_ground_torque_x	   R_ground_torque_y	   R_ground_torque_z	
          2.41200000	          0.00000000	          0.00000000	          0.00000000	         -0.00000000	          0.00000000	         -0.00000000	         -1.95154089	         -1.01813548	          0.95529605	          0.07474526	          0.00000000	          0.01515169	          0.00000000	          0.00000000	          0.00000000	          0.00000000	          0.02475866	          0.00000000	
          2.41300000	          0.00000000	          0.00000000	          0.00000000	         -0.00000000	          0.00000000	         -0.00000000	         -2.05644344	         -1.68226378	          0.89418577	          0.06904240	          0.00000000	          0.01393077	          0.00000000	          0.00000000	          0.00000000	          0.00000000	          0.02507305	          0.00000000	
          2.41400000	          0.00000000	          0.00000000	          0.00000000	         -0.00000000	          0.00000000	         -0.00000000	         -2.14465592	         -2.28356824	          0.83489242	          0.06356352	          0.00000000	          0.01276101	          0.00000000	          0.00000000	          0.00000000	          0.00000000	          0.02526597	          0.00000000	
          2.41500000	          0.00000000	          0.00000000	          0.00000000	         -0.00000000	          0.00000000	         -0.00000000	         -2.21726405	         -2.82511822	          0.77748557	          0.05831028	          0.00000000	          0.01164249	          0.00000000	          0.00000000	          0.00000000	          0.00000000	          0.02534700	          0.00000000	
          2.41600000	          0.00000000	          0.00000000	         -0.00000000	         -0.00000000	          0.00000000	         -0.00000000	         -2.27532021	         -3.30994790	          0.72202176	          0.05328336	          0.00000000	          0.01057508	          0.00000000	          0.00000000	          0.00000000	          0.00000000	          0.02532537	          0.00000000	
          2.41700000	          0.00000000	          0.00000000	         -0.00000000	         -0.00000000	          0.00000000	         -0.00000000	         -2.31984228	         -3.74104782	          0.66854535	          0.04848250	          0.00000000	          0.00955846	          0.00000000	          0.00000000	          0.00000000	          0.00000000	          0.02520988	          0.00000000	
          2.41800000	          0.00000000	          0.00000000	         -0.00000000	         -0.00000000	          0.00000000	         -0.00000000	         -2.35181276	         -4.12135728	          0.61708946	          0.04390663	          0.00000000	          0.00859216	          0.00000000	          0.00000000	          0.00000000	          0.00000000	          0.02500894	          0.00000000	
          2.41900000	          0.00000000	          0.00000000	         -0.00000000	         -0.00000000	          0.00000000	         -0.00000000	         -2.37217803	         -4.45375759	          0.56767672	          0.03955390	          0.00000000	          0.00767555	          0.00000000	          0.00000000	          0.00000000	          0.00000000	          0.02473059	          0.00000000	
          2.42000000	          0.00000000	          0.00000000	         -0.00000000	         -0.00000000	          0.00000000	         -0.00000000	         -2.38184784	         -4.74106613	          0.52032014	          0.03542179	          0.00000000	          0.00680787	          0.00000000	          0.00000000	          0.00000000	          0.00000000	          0.02438245	          0.00000000	
          2.42100000	          0.00000000	          0.00000000	         -0.00000000	         -0.00000000	          0.00000000	         -0.00000000	         -2.38169504	         -4.98603112	          0.47502385	          0.03150717	          0.00000000	          0.00598824	          0.00000000	          0.00000000	          0.00000000	          0.00000000	          0.02397178	          0.00000000	
          2.42200000	          0.00000000	          0.00000000	         -0.00000000	         -0.00000000	          0.00000000	         -0.00000000	         -2.37255536	         -5.19132711	          0.43178383	          0.02780632	          0.00000000	          0.00521567	          0.00000000	          0.00000000	          0.00000000	          0.00000000	          0.02350544	          0.00000000	
          2.42300000	          0.00000000	          0.00000000	         -0.00000000	         -0.00000000	          0.00000000	         -0.00000000	         -2.35522743	         -5.35955116	          0.39058865	          0.02431506	          0.00000000	          0.00448908	          0.00000000	          0.00000000	          0.00000000	          0.00000000	          0.02298993	          0.00000000	
          2.42400000	          0.00000000	          0.00000000	         -0.00000000	         -0.00000000	          0.00000000	         -0.00000000	         -2.33047294	         -5.49321961	          0.35142011	          0.02102876	          0.00000000	          0.00380730	          0.00000000	          0.00000000	          0.00000000	          0.00000000	          0.02243137	          0.00000000	
          2.42500000	          0.00000000	          0.00000000	         -0.00000000	         -0.00000000	          0.00000000	         -0.00000000	         -2.29901687	         -5.59476541	          0.31425390	          0.01794241	          0.00000000	          0.00316910	          0.00000000	          0.00000000	          0.00000000	          0.00000000	          0.02183554	          0.00000000	
          2.42600000	          0.00000000	          0.00000000	         -0.00000000	         -0.00000000	          0.00000000	         -0.00000000	         -2.26154788	         -5.66653604	          0.27906023	          0.01505068	          0.00000000	          0.00257319	          0.00000000	          0.00000000	          0.00000000	          0.00000000	          0.02120787	          0.00000000	
          2.42700000	          0.00000000	          0.00000000	         -0.00000000	         -0.00000000	          0.00000000	         -0.00000000	         -2.21871879	         -5.71079192	          0.24580437	          0.01234794	          0.00000000	          0.00201822	          0.00000000	          0.00000000	          0.00000000	          0.00000000	          0.02055342	          0.00000000	
          2.42800000	          0.00000000	          0.00000000	         -0.00000000	         -0.00000000	          0.00000000	         -0.00000000	         -2.17114718	         -5.72970522	          0.21444723	          0.00982834	          0.00000000	          0.00150282	          0.00000000	          0.00000000	          0.00000000	          0.00000000	          0.01987694	          0.00000000	
          2.42900000	          0.00000000	          0.00000000	         -0.00000000	         -0.00000000	          0.00000000	         -0.00000000	         -2.11941605	         -5.72535921	          0.18494585	          0.00748583	          0.00000000	          0.00102555	          0.00000000	          0.00000000	          0.00000000	          0.00000000	          0.01918288	          0.00000000	
          2.43000000	          0.00000000	          0.00000000	         -0.00000000	         -0.00000000	          0.00000000	         -0.00000000	         -2.06407454	         -5.69974792	          0.15725393	          0.00531420	          0.00000000	          0.00058499	          0.00000000	          0.00000000	          0.00000000	          0.00000000	          0.01847534	          0.00000000	
          2.43100000	          0.00000000	          0.00000000	         -0.00000000	         -0.00000000	          0.00000000	         -0.00000000	         -2.00563874	         -5.65477618	          0.13132227	          0.00330713	          0.00000000	          0.00017968	          0.00000000	          0.00000000	          0.00000000	          0.00000000	          0.01775814	          0.00000000	
          2.43200000	          0.00000000	          0.00000000	         -0.00000000	         -0.00000000	          0.00000000	         -0.00000000	         -1.94459255	         -5.59226004	          0.10709920	          0.00145821	          0.00000000	         -0.00019185	          0.00000000	          0.00000000	          0.00000000	          0.00000000	          0.01703482	          0.00000000	
          2.43300000	          0.00000000	          0.00000000	         -0.00000000	         -0.00000000	          0.00000000	         -0.00000000	         -1.88138859	         -5.51392744	          0.08453096	         -0.00023901	          0.00000000	         -0.00053107	          0.00000000	          0.00000000	          0.00000000	          0.00000000	          0.01630862	          0.00000000	
